# xmcd
#
# Track frame offsets:
#  150
#  14046
#  34074
#  51696
#  67964
#  87181
#  98907
#  119399
#  129393
#  143584
#  159212
#  171186
#  194139
#
# Disc length: 2593 seconds
#
# Revision: 1
# Processed by: cddbd v1.5.1PL2 Copyright (c) Steve Scherf et al.
# Submitted via: Collectorz.com_Music_Collector 6.9
#
DISCID=b60a1f0d
DTITLE=Trevor Finlay Band - Show Me What U Got
DYEAR=2005
DGENRE=Blues - Blues Rock
TTITLE0=I'll Come To You
TTITLE1=Mr. Bad Timing
TTITLE2=It's Over
TTITLE3=Couldn't It Wait (Til The Morning)?
TTITLE4=Let's Just Get Drunk
TTITLE5=Philly No More
TTITLE6=Bebopalula
TTITLE7=Dance Like No One's Looking
TTITLE8=Lion's Mouth
TTITLE9=Keep It Up
TTITLE10=Show Me What U Got
TTITLE11=Kiss
TTITLE12=Untitled
EXTD=
EXTT0=
EXTT1=
EXTT2=
EXTT3=
EXTT4=
EXTT5=
EXTT6=
EXTT7=
EXTT8=
EXTT9=
EXTT10=
EXTT11=
EXTT12=
PLAYORDER=
